M48
;Layer_Color=9474304
;FILE_FORMAT=2:5
INCH,LZ
;TYPE=PLATED
T1F00S00C0.01200
T3F00S00C0.03543
%
T01
X0502Y02565
X0507
X04935Y03
Y0303
X04605Y0306
X0460858Y0297342
X0457Y0312
X0453Y0311
X04455Y0312
X0440798Y0304696
X0441439Y0297
X0439Y02945
X0432743Y02925
X04285
X04275Y02895
X0421Y02905
Y02935
X0419Y02965
X04245Y03015
X0434Y02985
X0431Y02855
X04315Y0274
X04285Y02735
X0425015Y0275939
X0434703Y0273385
X0437686Y0273062
X0445Y02705
X04445Y02655
X0445126Y0260126
X04155Y0273
X0412Y02785
X04095Y02805
X0408165Y02835
X0408673Y0290363
X0408Y0293286
X0407961Y02965
X0408Y02995
Y03025
X03995Y03035
X04Y0299
X03905Y03035
X03825Y0304
X0403374Y0311126
X04065Y0311
X04095
X0413Y03197
X0420766Y0322
X04275
X04315Y03215
X0433374Y0323874
X04365Y03235
X04395Y0324
X04425Y03235
X0443Y03205
X045Y03125
X04845Y033
T03
X04755Y0249
X04855
X04655
X04555
X04455
X04355
X04255
X04155
X04055
X03955
X03855
X03755
X03655
X03555
X03455
X0346Y03425
X0356
X0366
X0376
X0386
X0396
X0406
X0416
X0426
X0436
X0446
X0456
X0466
X0476
X0486
M30
