M48
;Layer_Color=9474304
;FILE_FORMAT=2:5
INCH,LZ
;TYPE=PLATED
T1F00S00C0.01200
T3F00S00C0.03543
%
T01
X04932Y0278
X04955Y0281
X04932Y03035
X0463Y0304937
X045533Y0305496
X0452285Y0304715
X0445552Y0308
X0441Y03025
X04335Y03
X0430874Y0297626
X0428374Y0295126
X0421Y0293
X04215Y029
X04205Y0302
X04085Y03075
X0406363Y0309863
X0402Y03045
X0403Y0301
X0403126Y0297874
X0403188Y0294683
X03935Y02975
Y03015
X0384Y02975
X0411Y02775
X0417Y0271
X0434Y0269
X04385Y0282
Y0317
X04362Y031896
X0432624Y0319624
X0429365Y0319883
X0428508Y0317008
X04215Y03185
X0421Y03155
X0404Y03125
X04431Y0312858
X0441Y0315
X04925Y0313
X04955Y0325
X04825Y03285
T03
X04754Y02614
X04654
X04554
X04454
X04354
X04254
X04154
X04054
X03954
X03854
X03754
X03654
X03554
X03454
X03455Y0341685
X03555
X03655
X03755
X03855
X03955
X04055
X04155
X04255
X04355
X04455
X04555
X04655
X04755
M30
